<svg xmlns="http://www.w3.org/2000/svg"
    viewBox="0 0 1024 768"
    fill-rule="evenodd"
    clip-rule="evenodd"
    stroke-linecap="round"
    stroke-linejoin="round"
    stroke-miterlimit="1.5">

    <path
        class="path-star"
        d="M99.76,587.363c-0.586,-62.745 51.828,-172.495 78.516,-228.844c11.835,-24.989 24.344,-49.623 37.906,-73.719c4.442,-7.892 8.856,-15.794 13.229,-23.724c2.116,-3.837 4.328,-7.598 6.589,-11.349c0.622,-1.032 1.402,-3.904 2.114,-2.932c1.578,2.152 -2.039,9.685 -2.63,11.583c-4.659,14.967 -8.943,29.964 -11.854,45.386c-10.094,53.461 -13.085,109.869 -16.266,164.099c-0.601,10.258 -6.037,75.223 9.735,62.047c19.972,-16.686 -14.415,-39.662 -25.026,-46.813c-38.571,-25.993 -86.097,-39.435 -132.511,-37.693c-7.805,0.293 -54.304,14.794 -49.479,23.886c2.605,4.908 53.106,-5.744 58.411,-6.985c70.834,-16.566 139.502,-40.313 208.219,-63.875c9.923,-3.402 73.638,-25.724 76.906,-17.776c0.311,0.755 -0.456,0.422 -1.031,0.479c-5.803,0.579 -11.675,3.789 -16.661,6.584c-13.043,7.309 -25.9,14.845 -39.229,21.661c-39.843,20.376 -79.639,41.707 -116.422,67.292c-29.946,20.829 -59.046,44.971 -80.058,75.141c-5.391,7.741 -18.968,25.869 -14.14,36.817c5.293,12.004 21.734,7.521 16.317,-7.14"
        fill="none"
        stroke="#000"></path>
    <path
        class="path-w"
        d="M254.666,464.368c2.901,25.116 10.003,48.685 16.547,73.083c1.852,6.905 3.651,13.834 5.615,20.709c0.076,0.267 4.453,13.514 5.213,12.458c1.594,-2.212 1.987,-75.097 3.261,-85.302c0.151,-1.214 4.367,-23.317 5.099,-22.693c2.961,2.526 10.328,62.214 12.198,70.068c0.99,4.16 3.952,24.38 11.109,23.088c8.241,-1.487 11.773,-32.725 12.943,-38.802c6.144,-31.924 10.309,-64.313 14.255,-96.567c0.148,-1.211 12.45,-73.413 3.323,-47.532"
        fill="none"
        stroke="#000"></path>
    <path
        class="path-e"
        d="M318 496.665c15.823-5.027 29.557-13.007 45.182-18.25 10.189-3.419 20.563-6.279 31.099-8.412 6.051-1.225 12.158-2.196 18.265-3.093 5.275-.776 10.56-1.324 15.865-1.829 12.582-1.197-15.98-6.002-26.401-17.453-6.917-7.599-12.115-16.874-15.979-26.343-5.75-14.089-9.123-29.058-11.052-44.12-3.733-29.145-2.683-58.942 2.692-87.761 1.906-10.215 4.125-20.367 6.183-30.552.068-.337 2.554-16.673.458-14.521-7.276 7.472-9.364 54.423-10.995 65.386-9.984 67.12-27.218 135.402-23.307 203.693 2.523 44.059 33.411 99.881 68.948 43.401"
        fill="none"
        stroke="#000"></path>
    <path
        class="path-s"
        d="M495.927 465.717c-7.028-26.001-6.867-94.807-28.349-110.058-11.644-8.266-16.981 13.126-19.011 20.313-6.414 22.713-10.336 53.292-3.437 76.255 12.015 39.992 75.213 31.729 61.734 90.776-4.712 20.642-54.762 51.325-63.052 26.266-5.813-17.572 10.855-37.618 19.875-51.099"
        fill="none"
        stroke="#000"></path>
    <path
        class="path-o"
        d="M535.838 423.899c-10.912 38.605-17.11 82.749-12.484 122.755 1.715 14.833 7.377 42.414 26.057 44.594 19.187 2.239 27.013-22.373 31.438-36.896 12.659-41.553 10.321-89.819-16.433-125.531-34.152-45.587-40.632 53.803-20.442 36.578"
        fill="none"
        stroke="#000"></path>
    <path
        class="path-m"
        d="M598.203 438.342c0-46.542 23.389-5.989 26.515 13.411 5.348 33.188 4.739 69.192.344 102.438-1.038 7.854-1.896 31.943-10.141 37.219-.971.621-.07-15.064 0-15.558 1.327-9.288 3.417-18.54 5.443-27.692 7.613-34.388 17.407-69.022 34.13-100.214 1.435-2.676 12.313-25.122 18.61-21.349 4.544 2.723.423 23.502-.172 27.057-3.915 23.396-9.24 46.564-13.854 69.828-.199 1.004-6.065 27.438-4.698 27.776.583.145 10.489-23.928 12.599-28.567 5.541-12.186 42.498-88.268 59.148-81.877 5.603 2.151 1.334 25.715.81 29.189-4.64 30.758-13.247 61.06-19.646 91.49-.477 2.272-4.361 30.786-7.958 30.786"
        fill="none"
        stroke="#000"></path>
    <path
        class="path-e2"
        d="M728.541 539.118c21.478-8.733 44.182-13.044 66.026-21.11 1.342-.495 16.826-7.749 18.271-5.713.286.403-17.808 1.353-19.302.953-29.536-7.912-49.164-55.548-23.307-62.448 2.758-.736-5.895 20.569-11.912 33.724-8.565 18.726-26.304 47.897-16.375 69.271 20.501 44.127 87.014 45.084 113.271 7.219"
        fill="none"
        stroke="#000"></path>

    <path class="path-underline"
        d="M154.911 650.915c97.164-26.985 183.339-39.594 284.724-39.594 33.293 0 66.034 1.026 98.667 8.333 10.763 2.41 21.241 5.574 31.385 9.917 4.456 1.908 22.315 9.995 26.592 12.772 6.243 4.053-19.142.649-19.065.69 2.955 1.594-13.368-4.586-51.24-9.704-25.726-3.477-50.161-5.045-65.896-5.263-42.97-.596-78.169 4.349-121.058 7.692-12.085.943-89.198 11.78-95.52 23.464-1.065 1.969 14.867-.916 17.105-.916 8.123 0 14.821-3.586 22.869-4.693 17.983-2.476 35.946-4.686 54.057-6.032 43.735-3.249 88.469-4.064 132.224-.791 10.482.784 33.731-1.03 43.01 5.396 2.851 1.973-12.176 4.811-12.312 4.838-11.52 2.289-26.36 1.706-37.987 3.346-34.177 4.821-79.117 3.594-112.699 11.734-6.755 1.637-24.52 6.714-27.129 15.466-1.858 6.231 30.137 10.522 33.128 10.751 22.004 1.683 45.331-1.175 67.385-1.175 3.032 0 33.158-.981 22.843 7.409-1.849 1.505-24.695 7.266-26.286 7.62-10.844 2.412-67.189 11.892-70.151 23.167-5.151 19.608 62.842 25.156 73.812 25.156"
        fill="none"
        stroke="#000"></path>

    <g transform="translate(-100, 0)">
        <path
            class="path-2"
            transform="translate(-25, -10)"
            d="M834.82 699.402c4.774-7.559 3.864-7.968 8.16-11.961 6.975-6.482 35.702-23.572 31.012-.832-1.553 7.533-21.725 32.228-26.5 41.657-1.163 2.297-4.303 13.196-6.828 14.343-2.29 1.041 4.037-3.192 6.441-3.929 5.134-1.574 10.384-2.711 15.719-3.332 5.21-.607 10.629-.245 15.719-1.547"
            fill="none"
            stroke="#000"></path>
        <path class="path-0"
            transform="translate(-25, -10)"
            d="M895.984 675.301c-2.433 3.709-5.086 7.284-7.3 11.129-4.132 7.171-10.669 48.242 3.949 47.132 14.763-1.12 28.201-36.008 24.566-48.859-2.025-7.159-8.438-14.053-16.148-14.523-2.466-.151-13.602 2.621-10.309 2.621"
            fill="none"
            stroke="#000"></path>
        <path
            class="path-20"
            transform="translate(60, 2)"
            d="M834.82 699.402c4.774-7.559 3.864-7.968 8.16-11.961 6.975-6.482 35.702-23.572 31.012-.832-1.553 7.533-21.725 32.228-26.5 41.657-1.163 2.297-4.303 13.196-6.828 14.343-2.29 1.041 4.037-3.192 6.441-3.929 5.134-1.574 10.384-2.711 15.719-3.332 5.21-.607 10.629-.245 15.719-1.547"
            fill="none"
            stroke="#000"></path>
        <path
            class="path-7"
            d="M943.703 667.922c13.204-.5 24.217-2.305 36.938-5.059 4.445-.962 8.916-1.861 13.312-3.035 2.186-.583 8.679-1.802 6.442-2.141-2.701-.409-4.71 1.239-6.657 2.856-15.597 12.951-26.032 39.513-34.144 57.312-.379.831-8.259 20.649-5.324 20.649"
            fill="none"
            stroke="#000"></path>
        <path
            class="path-7-dash"
            d="M951.863 707.141c11.398-1.465 25.101-1.362 36.379-4.106"
            fill="none"
            stroke="#000"></path>
    </g>

    

    <!-- <path class="path-1"
        d="M926.906 674.883c2.534-2.5 4.936-5.141 7.602-7.5.766-.678-.088 4.649-.688 7.617-.871 4.31-1.659 8.635-2.363 12.977-.672 4.145-6.656 69.355-6.656 39.515"
        fill="none"
        stroke="#000"></path> -->
</svg>